<svg width="44" height="44" viewBox="0 0 44 44" fill="none" xmlns="http://www.w3.org/2000/svg">
<path d="M22 41.25C32.6315 41.25 41.25 32.6315 41.25 22C41.25 11.3685 32.6315 2.75 22 2.75C11.3685 2.75 2.75 11.3685 2.75 22C2.75 32.6315 11.3685 41.25 22 41.25Z" fill="url(#paint0_radial_1_143)"/>
<path opacity="0.85" d="M22 5.5L36.3 13.75V30.25L22 38.5L7.70001 30.25V13.75L22 5.5Z" stroke="#10B981" stroke-width="1.375" stroke-linejoin="round"/>
<path d="M22 7.42501C23.0631 7.42501 23.925 6.56316 23.925 5.50001C23.925 4.43686 23.0631 3.57501 22 3.57501C20.9368 3.57501 20.075 4.43686 20.075 5.50001C20.075 6.56316 20.9368 7.42501 22 7.42501Z" fill="#34D399"/>
<path d="M36.3 15.675C37.3631 15.675 38.225 14.8132 38.225 13.75C38.225 12.6869 37.3631 11.825 36.3 11.825C35.2369 11.825 34.375 12.6869 34.375 13.75C34.375 14.8132 35.2369 15.675 36.3 15.675Z" fill="#34D399"/>
<path d="M36.3 32.175C37.3631 32.175 38.225 31.3132 38.225 30.25C38.225 29.1869 37.3631 28.325 36.3 28.325C35.2369 28.325 34.375 29.1869 34.375 30.25C34.375 31.3132 35.2369 32.175 36.3 32.175Z" fill="#34D399"/>
<path d="M22 40.425C23.0631 40.425 23.925 39.5632 23.925 38.5C23.925 37.4369 23.0631 36.575 22 36.575C20.9368 36.575 20.075 37.4369 20.075 38.5C20.075 39.5632 20.9368 40.425 22 40.425Z" fill="#34D399"/>
<path d="M7.69999 32.175C8.76314 32.175 9.62499 31.3132 9.62499 30.25C9.62499 29.1869 8.76314 28.325 7.69999 28.325C6.63685 28.325 5.77499 29.1869 5.77499 30.25C5.77499 31.3132 6.63685 32.175 7.69999 32.175Z" fill="#34D399"/>
<path d="M7.69999 15.675C8.76314 15.675 9.62499 14.8132 9.62499 13.75C9.62499 12.6869 8.76314 11.825 7.69999 11.825C6.63685 11.825 5.77499 12.6869 5.77499 13.75C5.77499 14.8132 6.63685 15.675 7.69999 15.675Z" fill="#34D399"/>
<g opacity="0.4">
<path d="M22 5.5V22" stroke="#10B981" stroke-width="0.916667"/>
<path d="M36.3 13.75L22 22" stroke="#10B981" stroke-width="0.916667"/>
<path d="M36.3 30.25L22 22" stroke="#10B981" stroke-width="0.916667"/>
<path d="M22 38.5V22" stroke="#10B981" stroke-width="0.916667"/>
<path d="M7.70001 30.25L22 22" stroke="#10B981" stroke-width="0.916667"/>
<path d="M7.70001 13.75L22 22" stroke="#10B981" stroke-width="0.916667"/>
</g>
<path d="M22 15.125L27.9583 20.625L22 28.875L16.0417 20.625L22 15.125Z" fill="url(#paint1_linear_1_143)"/>
<path d="M22 15.125L27.9583 20.625L22 22L16.0417 20.625L22 15.125Z" fill="url(#paint2_linear_1_143)"/>
<path d="M22 22L27.9583 20.625L22 28.875V22Z" fill="#059669"/>
<path d="M22 15.125V22L16.0417 20.625L22 15.125Z" fill="#34D399"/>
<defs>
<radialGradient id="paint0_radial_1_143" cx="0" cy="0" r="1" gradientUnits="userSpaceOnUse" gradientTransform="translate(22 22) scale(19.25)">
<stop stop-color="#10B981" stop-opacity="0.35"/>
<stop offset="1" stop-color="#10B981" stop-opacity="0"/>
</radialGradient>
<linearGradient id="paint1_linear_1_143" x1="16.5" y1="13.75" x2="27.5" y2="30.25" gradientUnits="userSpaceOnUse">
<stop stop-color="#6EE7B7"/>
<stop offset="0.55" stop-color="#10B981"/>
<stop offset="1" stop-color="#047857"/>
</linearGradient>
<linearGradient id="paint2_linear_1_143" x1="18.3333" y1="15.5833" x2="22" y2="22" gradientUnits="userSpaceOnUse">
<stop stop-color="#D1FAE5"/>
<stop offset="1" stop-color="#34D399"/>
</linearGradient>
</defs>
</svg>
